n 13th-century England, a small group of Knights Templar fight to defend Rochester Castle against the tyrannical King John.

Director:
Jonathan English
Writers:
Jonathan English (story), Erick Kastel (co-screenplay), and 1 more credit »
Stars:
Paul Giamatti, Jason Flemyng and Brian Cox 

Media info:

General
Complete name                    : E:\torrent2\Ironclad.2011.BluRay rip.Mkv..1080p.AVC.AC3 5.1-ACB-Team\Ironclad.2011.BluRay rip.Mkv..1080p.AVC.AC3 5.1-ACB-Team.mkv
Format                           : Matroska
File size                        : 11.3 GiB
Duration                         : 2h 0mn
Overall bit rate                 : 13.4 Mbps
Movie name                       : movie
Encoded date                     : UTC 2011-07-17 05:33:02
Writing application              : mkvmerge v3.2.0 ('Beginnings') built on Feb 12 2010 16:46:17
Writing library                  : libebml v0.7.9 + libmatroska v0.8.1

Video
ID                               : 1
Format                           : AVC
Format/Info                      : Advanced Video Codec
Format profile                   : High@L4.1
Format settings, CABAC           : Yes
Format settings, ReFrames        : 2 frames
Muxing mode                      : Container profile=Unknown@0.0
Codec ID                         : V_MPEG4/ISO/AVC
Duration                         : 2h 0mn
Bit rate mode                    : Variable
Bit rate                         : 12.7 Mbps
Nominal bit rate                 : 13.5 Mbps
Maximum bit rate                 : 35.0 Mbps
Width                            : 1 920 pixels
Height                           : 1 080 pixels
Display aspect ratio             : 16:9
Frame rate                       : 23.976 fps
Color space                      : YUV
Chroma subsampling               : 4:2:0
Bit depth                        : 8 bits
Scan type                        : Progressive
Bits/(Pixel*Frame)               : 0.255
Stream size                      : 10.7 GiB (95%)
Writing library                  : x264 core 115 r2008 4c552d8
Encoding settings                : cabac=1 / ref=1 / deblock=1:0:0 / analyse=0x3:0x3 / me=dia / subme=1 / psy=1 / psy_rd=1.00:0.00 / mixed_ref=0 / me_range=16 / chroma_me=1 / trellis=0 / 8x8dct=1 / cqm=0 / deadzone=21,11 / fast_pskip=1 / chroma_qp_offset=0 / threads=3 / sliced_threads=0 / slices=4 / nr=0 / decimate=1 / interlaced=0 / bluray_compat=1 / constrained_intra=0 / bframes=3 / b_pyramid=0 / b_adapt=1 / b_bias=0 / direct=1 / weightb=1 / open_gop=0 / weightp=1 / keyint=24 / keyint_min=1 / scenecut=40 / intra_refresh=0 / rc_lookahead=0 / rc=abr / mbtree=0 / bitrate=13468 / ratetol=1.0 / qcomp=0.60 / qpmin=0 / qpmax=69 / qpstep=4 / vbv_maxrate=35000 / vbv_bufsize=30000 / nal_hrd=vbr / ip_ratio=1.10 / pb_ratio=1.10 / aq=1:1.00

Audio
ID                               : 2
Format                           : AC-3
Format/Info                      : Audio Coding 3
Mode extension                   : CM (complete main)
Codec ID                         : A_AC3
Duration                         : 2h 0mn
Bit rate mode                    : Constant
Bit rate                         : 448 Kbps
Channel(s)                       : 6 channels
Channel positions                : Front: L C R, Side: L R, LFE
Sampling rate                    : 48.0 KHz
Bit depth                        : 16 bits
Stream size                      : 387 MiB (3%)
Language                         : English

Text #1
ID                               : 3
Format                           : VobSub
Muxing mode                      : zlib
Codec ID                         : S_VOBSUB
Codec ID/Info                    : The same subtitle format used on DVDs
Language                         : English

Text #2
ID                               : 4
Format                           : UTF-8
Codec ID                         : S_TEXT/UTF8
Codec ID/Info                    : UTF-8 Plain Text
Language                         : Dutch

Menu
00:00:00.000                     : en:00:00:00.000
00:02:19.597                     : en:00:02:19.597
00:07:15.601                     : en:00:07:15.601
00:14:11.642                     : en:00:14:11.642
00:18:08.796                     : en:00:18:08.796
00:24:01.857                     : en:00:24:01.857
00:28:42.595                     : en:00:28:42.595
00:35:26.749                     : en:00:35:26.749
00:39:21.358                     : en:00:39:21.358
00:42:55.322                     : en:00:42:55.322
00:52:10.335                     : en:00:52:10.335
00:55:31.661                     : en:00:55:31.661
00:58:18.953                     : en:00:58:18.953
01:02:00.758                     : en:01:02:00.758
01:07:08.023                     : en:01:07:08.023
01:11:24.822                     : en:01:11:24.822
01:15:32.319                     : en:01:15:32.319
01:17:38.695                     : en:01:17:38.695
01:25:27.080                     : en:01:25:27.080
01:31:25.062                     : en:01:31:25.062
01:35:47.742                     : en:01:35:47.742
01:39:01.810                     : en:01:39:01.810
01:43:57.606                     : en:01:43:57.606
01:50:17.110                     : en:01:50:17.110
01:53:59.874                     : en:01:53:59.874

